<svg width="25" height="25" viewBox="0 0 25 25" fill="none" xmlns="http://www.w3.org/2000/svg">
<path d="M0.78125 6.25H21.0938C21.5254 6.25 21.875 5.90039 21.875 5.46875V2.34375C21.875 1.91211 21.5254 1.5625 21.0938 1.5625H0.78125C0.349609 1.5625 0 1.91211 0 2.34375V5.46875C0 5.90039 0.349609 6.25 0.78125 6.25ZM24.2188 10.1562H3.90625C3.47461 10.1562 3.125 10.5059 3.125 10.9375V14.0625C3.125 14.4941 3.47461 14.8438 3.90625 14.8438H24.2188C24.6504 14.8438 25 14.4941 25 14.0625V10.9375C25 10.5059 24.6504 10.1562 24.2188 10.1562ZM21.0938 18.75H0.78125C0.349609 18.75 0 19.0996 0 19.5312V22.6562C0 23.0879 0.349609 23.4375 0.78125 23.4375H21.0938C21.5254 23.4375 21.875 23.0879 21.875 22.6562V19.5312C21.875 19.0996 21.5254 18.75 21.0938 18.75Z" fill="#FF3F3A"/>
</svg>
